<?xml version="1.0" encoding="UTF-8"?> <svg xmlns="http://www.w3.org/2000/svg" width="222.021" height="35" viewBox="0 0 222.021 35"><defs><style>.a{fill:#242931;}</style></defs><path class="a" d="M-696.784,155c-1.486-.041-2.976-.012-4.556-.012.711-1.816,1.381-3.543,2.056-5.267q5.711-14.526,11.412-29.062a.843.843,0,0,1,.928-.658c1.516.044,3.035.015,4.645.015-.176.485-.32.9-.485,1.322q-6.5,16.506-13,33.016a.849.849,0,0,1-.927.647Zm32.035-1.824c-4.724-.12-8.3-2.115-10.323-6.522a9.728,9.728,0,0,1-.875-4.844h2a9.842,9.842,0,0,0,1.119,4.586,9.3,9.3,0,0,0,9.3,4.65,8.709,8.709,0,0,0,6.642-3.681,9.667,9.667,0,0,0,1.533-5.564c.018-5.22,0-10.443,0-15.666a3.926,3.926,0,0,0-.047-.4h-11v-1.918h13.278v18.016c0,6.744-4.575,11.344-11.259,11.344C-664.5,153.179-664.624,153.178-664.749,153.174Zm17-5.831a11.28,11.28,0,0,1-1.24-5.311c0-5.208,3.005-9.227,7.843-10.3,7.077-1.569,13.513,3.261,12.864,11.307-.411,4.994-3.293,8.225-7.949,9.236a11.416,11.416,0,0,1-2.421.261A10.242,10.242,0,0,1-647.751,147.343Zm.77-5.276a8.044,8.044,0,0,0,8.155,8.407c5.109.021,8.552-3.346,8.578-8.387s-3.51-8.7-8.352-8.725v0h-.034C-643.424,133.366-646.991,137.082-646.982,142.067Zm53.435,10.15c-.479-.032-1.055-.015-1.628-.015-2.841-6.78-5.684-13.557-8.554-20.408a16.971,16.971,0,0,1,1.951.026c.205.024.449.317.543.544q3.246,7.808,6.463,15.628c.229.549.458,1.1.74,1.78l2.168-5.258c1.669-4.045,3.346-8.09,4.994-12.147a.782.782,0,0,1,.914-.587c.5.038,1,0,1.619,0-.355.846-.678,1.621-1,2.394q-3.663,8.739-7.306,17.456c-.175.423-.385.591-.788.591C-593.469,152.221-593.507,152.219-593.546,152.217Zm-14.368-.047v-.775c0-3.634.032-7.268-.02-10.9a11.125,11.125,0,0,0-.464-3.047c-.864-2.761-3.4-4.23-6.654-3.936A7.144,7.144,0,0,0-621.7,140.8v11.178a1.16,1.16,0,0,1-.032.176h-2.006V123.363h1.9v11.912l.235.176a.786.786,0,0,1,.035-.294c1.98-2.938,4.844-3.857,8.208-3.581A7.388,7.388,0,0,1-607,135.552a9.091,9.091,0,0,1,1.049,4.239c.024,4.048,0,8.093,0,12.141a1.7,1.7,0,0,1-.021.238Zm27.252-.012V131.75h1.989v20.408Zm-189.283-.071c-6.26-.047-10.558-4.386-10.549-10.643a10.215,10.215,0,0,1,10.534-10.622c6.26,0,10.681,4.492,10.672,10.869,0,6.035-4.45,10.4-10.571,10.4Zm-1.854-16.307c-2.35.852-3.367,2.726-3.587,5.076-.288,3.076,1.363,6.519,5.476,6.577l-.009-.006a5.191,5.191,0,0,0,5.135-3.634,6.95,6.95,0,0,0,.241-3.731,5.563,5.563,0,0,0-5.389-4.614A5.512,5.512,0,0,0-771.8,135.781Zm25.557,16.3c-6.275-.021-10.575-4.374-10.575-10.684a10.218,10.218,0,0,1,10.575-10.575c6.231.021,10.643,4.524,10.622,10.84.006,6.074-4.421,10.419-10.585,10.42Zm-1.434-16.451c-2.412.6-4.033,2.935-4.036,5.81.017,5.029,4.239,6.977,7.8,5.5,2.074-.858,3.278-3.079,3.2-5.7a5.671,5.671,0,0,0-5.557-5.785A5.866,5.866,0,0,0-747.675,135.634Zm23.83,16.38a9.54,9.54,0,0,1-8.813-7.226,12.323,12.323,0,0,1,.758-8.93c1.763-3.5,4.844-4.947,8.619-5.079a8.762,8.762,0,0,1,7.226,3.055V122.805h5.065v28.789h-4.736c-.106-.846-.211-1.68-.317-2.517h-.141a7.377,7.377,0,0,1-6.348,3C-722.962,152.081-723.4,152.057-723.845,152.014Zm1.577-16.515a5.636,5.636,0,0,0-5.766,5.9,5.708,5.708,0,0,0,5.766,5.975,5.734,5.734,0,0,0,5.875-5.961,5.8,5.8,0,0,0-1.685-4.2,5.8,5.8,0,0,0-4.112-1.711Zm-64.722,16.025c-.864-.406-1.422-1.448-2.1-2.23q-2.573-2.973-5.138-5.952c-.206-.235-.42-.461-.744-.814v9.048H-800V122.811h4.994v16.357l.185.129a4.739,4.739,0,0,1,.326-.5c1.977-2.35,3.963-4.7,5.928-7.086a1.2,1.2,0,0,1,1.051-.485c1.786.026,3.575,0,5.364,0l.138.2c-2.711,3.167-5.567,6.225-8.351,9.409,3.134,3.557,6.418,6.983,9.521,10.575l-.144.22h-2.938c-.612,0-1.27.1-1.884.1A2.76,2.76,0,0,1-786.989,151.524Zm149.6-24.938c-.705-.261-1.357-.667-2.039-.99a1.777,1.777,0,0,0-2.7.952l-1.354-.379a2.921,2.921,0,0,1,3.969-2.591,17.586,17.586,0,0,1,2.256,1.034c1.26.6,2.024.338,2.644-.97l1.333.405a2.793,2.793,0,0,1-2.865,2.772A3.555,3.555,0,0,1-637.39,126.586Zm57.692.218a1.514,1.514,0,0,1-1.557-1.7,1.527,1.527,0,0,1,.484-1.139,1.528,1.528,0,0,1,1.169-.406,1.572,1.572,0,0,1,1.182.479,1.571,1.571,0,0,1,.437,1.2,1.564,1.564,0,0,1-.508,1.167,1.563,1.563,0,0,1-1.055.41Q-579.622,126.811-579.7,126.8Z" transform="translate(800 -120)"></path></svg> 